<mxfile host="app.diagrams.net" agent="Mozilla/5.0 (Windows NT 10.0; Win64; x64) AppleWebKit/537.36 (KHTML, like Gecko) Chrome/129.0.0.0 Safari/537.36 Edg/129.0.0.0" version="24.7.16">
  <diagram name="Página-1" id="kuqY4EXrILYwsMJSM5DG">
    <mxGraphModel grid="1" page="1" gridSize="10" guides="1" tooltips="1" connect="1" arrows="1" fold="1" pageScale="1" pageWidth="827" pageHeight="1169" math="0" shadow="0">
      <root>
        <mxCell id="0" />
        <mxCell id="1" parent="0" />
        <mxCell id="qJ8zN0nMe3HMnmFR6Ydz-25" value="" style="group" connectable="0" vertex="1" parent="1">
          <mxGeometry x="440" y="105" width="280" height="280" as="geometry" />
        </mxCell>
        <mxCell id="qJ8zN0nMe3HMnmFR6Ydz-26" value="Program" style="rounded=0;whiteSpace=wrap;html=1;" vertex="1" parent="qJ8zN0nMe3HMnmFR6Ydz-25">
          <mxGeometry width="280" height="36" as="geometry" />
        </mxCell>
        <mxCell id="qJ8zN0nMe3HMnmFR6Ydz-27" value="Crear Magos y utilizar sus correspondientes métodos&lt;div&gt;&lt;br&gt;&lt;div&gt;Crear Elfos&amp;nbsp;&lt;span style=&quot;background-color: initial;&quot;&gt;y utilizar sus correspondientes métodos&lt;/span&gt;&lt;/div&gt;&lt;div&gt;&lt;span style=&quot;background-color: initial;&quot;&gt;&lt;br&gt;&lt;/span&gt;&lt;/div&gt;&lt;div&gt;Crear Enanos&amp;nbsp;&lt;span style=&quot;background-color: initial;&quot;&gt;y utilizar sus correspondientes métodos&lt;/span&gt;&lt;/div&gt;&lt;/div&gt;&lt;div&gt;&lt;span style=&quot;background-color: initial;&quot;&gt;&lt;br&gt;&lt;/span&gt;&lt;/div&gt;&lt;div&gt;&lt;span style=&quot;background-color: initial;&quot;&gt;Crear Items&amp;nbsp;&lt;/span&gt;&lt;span style=&quot;background-color: initial;&quot;&gt;y utilizar sus correspondientes métodos&lt;/span&gt;&lt;/div&gt;&lt;div&gt;&lt;span style=&quot;background-color: initial;&quot;&gt;&lt;br&gt;&lt;/span&gt;&lt;/div&gt;&lt;div&gt;&lt;span style=&quot;background-color: initial;&quot;&gt;Crear Spells&amp;nbsp;&lt;/span&gt;&lt;span style=&quot;background-color: initial;&quot;&gt;y utilizar sus correspondientes métodos&lt;/span&gt;&lt;/div&gt;" style="rounded=0;whiteSpace=wrap;html=1;" vertex="1" parent="qJ8zN0nMe3HMnmFR6Ydz-25">
          <mxGeometry y="36" width="150.77" height="244" as="geometry" />
        </mxCell>
        <mxCell id="qJ8zN0nMe3HMnmFR6Ydz-28" value="Mago&lt;div&gt;Elfo&lt;/div&gt;&lt;div&gt;Enano&lt;/div&gt;&lt;div&gt;&lt;span style=&quot;background-color: initial;&quot;&gt;Arco&lt;/span&gt;&lt;div&gt;&lt;span style=&quot;background-color: initial;&quot;&gt;Armadura&lt;/span&gt;&lt;/div&gt;&lt;div&gt;&lt;span style=&quot;background-color: initial;&quot;&gt;Escudo&lt;/span&gt;&lt;/div&gt;&lt;div&gt;Espada&lt;/div&gt;&lt;div&gt;Hacha&lt;/div&gt;&lt;div&gt;Spell&lt;/div&gt;&lt;/div&gt;" style="rounded=0;whiteSpace=wrap;html=1;" vertex="1" parent="qJ8zN0nMe3HMnmFR6Ydz-25">
          <mxGeometry x="150.77" y="36" width="129.23" height="244" as="geometry" />
        </mxCell>
        <mxCell id="qJ8zN0nMe3HMnmFR6Ydz-43" value="" style="group" connectable="0" vertex="1" parent="1">
          <mxGeometry x="160" y="10" width="240" height="370" as="geometry" />
        </mxCell>
        <mxCell id="qJ8zN0nMe3HMnmFR6Ydz-29" value="Mago" style="rounded=0;whiteSpace=wrap;html=1;" vertex="1" parent="qJ8zN0nMe3HMnmFR6Ydz-43">
          <mxGeometry width="240" height="30" as="geometry" />
        </mxCell>
        <mxCell id="qJ8zN0nMe3HMnmFR6Ydz-30" value="Conocer nombre&lt;div style=&quot;font-size: 16px;&quot;&gt;&lt;span style=&quot;font-size: 12px;&quot;&gt;Conocer Items&lt;/span&gt;&lt;/div&gt;&lt;div style=&quot;font-size: 16px;&quot;&gt;&lt;span style=&quot;font-size: 12px;&quot;&gt;Conocer Spells&lt;/span&gt;&lt;/div&gt;&lt;div style=&quot;font-size: 16px;&quot;&gt;&lt;span style=&quot;font-size: 12px;&quot;&gt;Conocer vida&lt;/span&gt;&lt;/div&gt;&lt;div style=&quot;font-size: 16px;&quot;&gt;&lt;span style=&quot;font-size: 12px;&quot;&gt;Conocer la vida máxima&lt;/span&gt;&lt;/div&gt;&lt;div style=&quot;font-size: 16px;&quot;&gt;&lt;span style=&quot;font-size: 12px;&quot;&gt;Conocer el valor de ataque&lt;/span&gt;&lt;/div&gt;&lt;div style=&quot;font-size: 16px;&quot;&gt;&lt;span style=&quot;font-size: 12px;&quot;&gt;&lt;br&gt;&lt;/span&gt;&lt;/div&gt;&lt;div style=&quot;font-size: 16px;&quot;&gt;&lt;div&gt;&lt;span style=&quot;font-size: 12px;&quot;&gt;Añadir Item y actualizar el valor de ataque&lt;/span&gt;&lt;/div&gt;&lt;div&gt;&lt;span style=&quot;font-size: 12px;&quot;&gt;Añadir Spell&amp;nbsp;&lt;/span&gt;&lt;span style=&quot;font-size: 12px; background-color: initial;&quot;&gt;y actualizar el valor de ataque&lt;/span&gt;&lt;/div&gt;&lt;/div&gt;&lt;div style=&quot;font-size: 16px;&quot;&gt;&lt;span style=&quot;font-size: 12px;&quot;&gt;Recibir ataque&lt;/span&gt;&lt;span style=&quot;background-color: initial; font-size: 12px;&quot;&gt;&amp;nbsp;&lt;/span&gt;&lt;span style=&quot;background-color: initial; font-size: 12px;&quot;&gt;y actualizar vida del personaje&lt;/span&gt;&lt;/div&gt;&lt;div style=&quot;font-size: 16px;&quot;&gt;&lt;span style=&quot;font-size: 12px;&quot;&gt;Curar&amp;nbsp;&lt;/span&gt;&lt;span style=&quot;background-color: initial; font-size: 12px;&quot;&gt;y actualizar vida del personaje&lt;/span&gt;&lt;/div&gt;&lt;div style=&quot;font-size: 16px;&quot;&gt;&lt;span style=&quot;font-size: 12px;&quot;&gt;Usar Spell&amp;nbsp;&lt;/span&gt;&lt;span style=&quot;background-color: initial; font-size: 12px;&quot;&gt;y actualizar vida del personaje&lt;/span&gt;&lt;span style=&quot;background-color: initial; color: rgba(0, 0, 0, 0); font-family: monospace; font-size: 0px; text-align: start; text-wrap: nowrap;&quot;&gt;%3CmxGraphModel%3E%3Croot%3E%3CmxCell%20id%3D%220%22%2F%3E%3CmxCell%20id%3D%221%22%20parent%3D%220%22%2F%3E%3CmxCell%20id%3D%222%22%20style%3D%22edgeStyle%3DorthogonalEdgeStyle%3Brounded%3D0%3BorthogonalLoop%3D1%3BjettySize%3Dauto%3Bhtml%3D1%3BexitX%3D1%3BexitY%3D0.25%3BexitDx%3D0%3BexitDy%3D0%3BentryX%3D0.337%3BentryY%3D0.999%3BentryDx%3D0%3BentryDy%3D0%3BentryPerimeter%3D0%3B%22%20edge%3D%221%22%20parent%3D%221%22%3E%3CmxGeometry%20relative%3D%221%22%20as%3D%22geometry%22%3E%3CmxPoint%20x%3D%22271%22%20y%3D%22728%22%20as%3D%22sourcePoint%22%2F%3E%3CmxPoint%20x%3D%22314%22%20y%3D%22780%22%20as%3D%22targetPoint%22%2F%3E%3C%2FmxGeometry%3E%3C%2FmxCell%3E%3C%2Froot%3E%3C%2FmxGraphModel%3E&lt;/span&gt;&lt;/div&gt;" style="rounded=0;whiteSpace=wrap;html=1;" vertex="1" parent="qJ8zN0nMe3HMnmFR6Ydz-43">
          <mxGeometry y="30" width="160" height="340" as="geometry" />
        </mxCell>
        <mxCell id="qJ8zN0nMe3HMnmFR6Ydz-31" value="&lt;span style=&quot;background-color: initial;&quot;&gt;Arco&lt;/span&gt;&lt;div&gt;&lt;span style=&quot;background-color: initial;&quot;&gt;Armadura&lt;/span&gt;&lt;/div&gt;&lt;div&gt;&lt;span style=&quot;background-color: initial;&quot;&gt;Escudo&lt;/span&gt;&lt;/div&gt;&lt;div&gt;Espada&lt;/div&gt;&lt;div&gt;Hacha&lt;/div&gt;&lt;div&gt;Spell&lt;/div&gt;" style="rounded=0;whiteSpace=wrap;html=1;" vertex="1" parent="qJ8zN0nMe3HMnmFR6Ydz-43">
          <mxGeometry x="160" y="30" width="80" height="340" as="geometry" />
        </mxCell>
        <mxCell id="qJ8zN0nMe3HMnmFR6Ydz-44" value="" style="group" connectable="0" vertex="1" parent="1">
          <mxGeometry x="160" y="400" width="240" height="370" as="geometry" />
        </mxCell>
        <mxCell id="qJ8zN0nMe3HMnmFR6Ydz-32" value="Enano" style="rounded=0;whiteSpace=wrap;html=1;" vertex="1" parent="qJ8zN0nMe3HMnmFR6Ydz-44">
          <mxGeometry width="240" height="30" as="geometry" />
        </mxCell>
        <mxCell id="qJ8zN0nMe3HMnmFR6Ydz-33" value="Conocer nombre&lt;div style=&quot;font-size: 16px;&quot;&gt;&lt;span style=&quot;font-size: 12px;&quot;&gt;Conocer Items&lt;/span&gt;&lt;/div&gt;&lt;div style=&quot;font-size: 16px;&quot;&gt;&lt;span style=&quot;font-size: 12px; background-color: initial;&quot;&gt;Conocer vida&lt;/span&gt;&lt;/div&gt;&lt;div style=&quot;font-size: 16px;&quot;&gt;&lt;span style=&quot;font-size: 12px;&quot;&gt;Conocer la vida máxima&lt;/span&gt;&lt;/div&gt;&lt;div style=&quot;font-size: 16px;&quot;&gt;&lt;span style=&quot;font-size: 12px;&quot;&gt;Conocer el valor de ataque&lt;/span&gt;&lt;/div&gt;&lt;div style=&quot;font-size: 16px;&quot;&gt;&lt;span style=&quot;font-size: 12px;&quot;&gt;Conocer el valor de armadura&lt;/span&gt;&lt;/div&gt;&lt;div style=&quot;font-size: 16px;&quot;&gt;&lt;span style=&quot;font-size: 12px;&quot;&gt;&lt;br&gt;&lt;/span&gt;&lt;/div&gt;&lt;div style=&quot;font-size: 16px;&quot;&gt;&lt;div&gt;&lt;span style=&quot;font-size: 12px;&quot;&gt;Añadir Item&amp;nbsp;&lt;/span&gt;&lt;span style=&quot;font-size: 12px; background-color: initial;&quot;&gt;y actualizar el valor de ataque&lt;/span&gt;&lt;/div&gt;&lt;/div&gt;&lt;div style=&quot;font-size: 16px;&quot;&gt;&lt;span style=&quot;font-size: 12px;&quot;&gt;Recibir ataque y actualizar vida del personaje&lt;/span&gt;&lt;/div&gt;&lt;div style=&quot;font-size: 16px;&quot;&gt;&lt;span style=&quot;font-size: 12px;&quot;&gt;Curar&amp;nbsp;&lt;/span&gt;&lt;span style=&quot;background-color: initial; font-size: 12px;&quot;&gt;y actualizar vida del personaje&lt;/span&gt;&lt;/div&gt;" style="rounded=0;whiteSpace=wrap;html=1;" vertex="1" parent="qJ8zN0nMe3HMnmFR6Ydz-44">
          <mxGeometry y="30" width="160" height="340" as="geometry" />
        </mxCell>
        <mxCell id="qJ8zN0nMe3HMnmFR6Ydz-34" value="&lt;span style=&quot;background-color: initial;&quot;&gt;Arco&lt;/span&gt;&lt;div&gt;&lt;span style=&quot;background-color: initial;&quot;&gt;Armadura&lt;/span&gt;&lt;/div&gt;&lt;div&gt;&lt;span style=&quot;background-color: initial;&quot;&gt;Escudo&lt;/span&gt;&lt;/div&gt;&lt;div&gt;Espada&lt;/div&gt;&lt;div&gt;Hacha&lt;/div&gt;" style="rounded=0;whiteSpace=wrap;html=1;" vertex="1" parent="qJ8zN0nMe3HMnmFR6Ydz-44">
          <mxGeometry x="160" y="30" width="80" height="340" as="geometry" />
        </mxCell>
        <mxCell id="qJ8zN0nMe3HMnmFR6Ydz-45" value="" style="group" connectable="0" vertex="1" parent="1">
          <mxGeometry x="160" y="790" width="240" height="370" as="geometry" />
        </mxCell>
        <mxCell id="qJ8zN0nMe3HMnmFR6Ydz-35" value="Elfo" style="rounded=0;whiteSpace=wrap;html=1;" vertex="1" parent="qJ8zN0nMe3HMnmFR6Ydz-45">
          <mxGeometry width="240" height="30" as="geometry" />
        </mxCell>
        <mxCell id="qJ8zN0nMe3HMnmFR6Ydz-36" value="Conocer nombre&lt;div style=&quot;font-size: 16px;&quot;&gt;&lt;span style=&quot;font-size: 12px;&quot;&gt;Conocer Items&lt;/span&gt;&lt;/div&gt;&lt;div style=&quot;font-size: 16px;&quot;&gt;&lt;span style=&quot;font-size: 12px;&quot;&gt;Conocer vida&lt;/span&gt;&lt;/div&gt;&lt;div style=&quot;font-size: 16px;&quot;&gt;&lt;span style=&quot;font-size: 12px;&quot;&gt;Conocer la vida máxima&lt;/span&gt;&lt;/div&gt;&lt;div style=&quot;font-size: 16px;&quot;&gt;&lt;span style=&quot;font-size: 12px;&quot;&gt;Conocer el valor de ataque&lt;/span&gt;&lt;/div&gt;&lt;div style=&quot;font-size: 16px;&quot;&gt;&lt;span style=&quot;font-size: 12px;&quot;&gt;&lt;br&gt;&lt;/span&gt;&lt;/div&gt;&lt;div style=&quot;font-size: 16px;&quot;&gt;&lt;div&gt;&lt;span style=&quot;font-size: 12px;&quot;&gt;Añadir Item&amp;nbsp;&lt;/span&gt;&lt;span style=&quot;font-size: 12px; background-color: initial;&quot;&gt;y actualizar el valor de ataque&lt;/span&gt;&lt;/div&gt;&lt;/div&gt;&lt;div style=&quot;font-size: 16px;&quot;&gt;&lt;span style=&quot;font-size: 12px;&quot;&gt;Recibir ataque&amp;nbsp;&lt;/span&gt;&lt;span style=&quot;background-color: initial; font-size: 12px;&quot;&gt;y actualizar vida del personaje&lt;/span&gt;&lt;/div&gt;&lt;div style=&quot;font-size: 16px;&quot;&gt;&lt;span style=&quot;font-size: 12px;&quot;&gt;Curar&amp;nbsp;&lt;/span&gt;&lt;span style=&quot;background-color: initial; font-size: 12px;&quot;&gt;y actualizar vida del personaje&lt;/span&gt;&lt;span style=&quot;background-color: initial; color: rgba(0, 0, 0, 0); font-family: monospace; font-size: 0px; text-align: start; text-wrap: nowrap;&quot;&gt;%3CmxGraphModel%3E%3Croot%3E%3CmxCell%20id%3D%220%22%2F%3E%3CmxCell%20id%3D%221%22%20parent%3D%220%22%2F%3E%3CmxCell%20id%3D%222%22%20style%3D%22edgeStyle%3DorthogonalEdgeStyle%3Brounded%3D0%3BorthogonalLoop%3D1%3BjettySize%3Dauto%3Bhtml%3D1%3BexitX%3D1%3BexitY%3D0.25%3BexitDx%3D0%3BexitDy%3D0%3BentryX%3D0.337%3BentryY%3D0.999%3BentryDx%3D0%3BentryDy%3D0%3BentryPerimeter%3D0%3B%22%20edge%3D%221%22%20parent%3D%221%22%3E%3CmxGeometry%20relative%3D%221%22%20as%3D%22geometry%22%3E%3CmxPoint%20x%3D%22271%22%20y%3D%22728%22%20as%3D%22sourcePoint%22%2F%3E%3CmxPoint%20x%3D%22314%22%20y%3D%22780%22%20as%3D%22targetPoint%22%2F%3E%3C%2FmxGeometry%3E%3C%2FmxCell%3E%3C%2Froot%3E%3C%2FmxGraphModel%3E&lt;/span&gt;&lt;/div&gt;" style="rounded=0;whiteSpace=wrap;html=1;" vertex="1" parent="qJ8zN0nMe3HMnmFR6Ydz-45">
          <mxGeometry y="30" width="160" height="340" as="geometry" />
        </mxCell>
        <mxCell id="qJ8zN0nMe3HMnmFR6Ydz-37" value="&lt;span style=&quot;background-color: initial;&quot;&gt;Arco&lt;/span&gt;&lt;div&gt;&lt;span style=&quot;background-color: initial;&quot;&gt;Armadura&lt;/span&gt;&lt;/div&gt;&lt;div&gt;&lt;span style=&quot;background-color: initial;&quot;&gt;Escudo&lt;/span&gt;&lt;/div&gt;&lt;div&gt;Espada&lt;/div&gt;&lt;div&gt;Hacha&lt;/div&gt;" style="rounded=0;whiteSpace=wrap;html=1;" vertex="1" parent="qJ8zN0nMe3HMnmFR6Ydz-45">
          <mxGeometry x="160" y="30" width="80" height="340" as="geometry" />
        </mxCell>
        <mxCell id="qJ8zN0nMe3HMnmFR6Ydz-46" value="" style="group" connectable="0" vertex="1" parent="1">
          <mxGeometry x="440" y="415" width="280" height="100" as="geometry" />
        </mxCell>
        <mxCell id="qJ8zN0nMe3HMnmFR6Ydz-22" value="" style="group" connectable="0" vertex="1" parent="qJ8zN0nMe3HMnmFR6Ydz-46">
          <mxGeometry width="280" height="100" as="geometry" />
        </mxCell>
        <mxCell id="qJ8zN0nMe3HMnmFR6Ydz-23" value="Conocer el nombre&lt;div&gt;Conocer el valor de ataque&lt;/div&gt;" style="rounded=0;whiteSpace=wrap;html=1;" vertex="1" parent="qJ8zN0nMe3HMnmFR6Ydz-22">
          <mxGeometry y="30" width="150.76923076923077" height="70" as="geometry" />
        </mxCell>
        <mxCell id="qJ8zN0nMe3HMnmFR6Ydz-24" value="" style="rounded=0;whiteSpace=wrap;html=1;" vertex="1" parent="qJ8zN0nMe3HMnmFR6Ydz-22">
          <mxGeometry x="150.76923076923077" y="30" width="129.23076923076923" height="70" as="geometry" />
        </mxCell>
        <mxCell id="qJ8zN0nMe3HMnmFR6Ydz-38" value="Arco" style="rounded=0;whiteSpace=wrap;html=1;" vertex="1" parent="qJ8zN0nMe3HMnmFR6Ydz-46">
          <mxGeometry width="280" height="30" as="geometry" />
        </mxCell>
        <mxCell id="qJ8zN0nMe3HMnmFR6Ydz-48" value="" style="group" connectable="0" vertex="1" parent="1">
          <mxGeometry x="440" y="965" width="280" height="100" as="geometry" />
        </mxCell>
        <mxCell id="qJ8zN0nMe3HMnmFR6Ydz-39" value="" style="group" connectable="0" vertex="1" parent="qJ8zN0nMe3HMnmFR6Ydz-48">
          <mxGeometry width="280" height="100" as="geometry" />
        </mxCell>
        <mxCell id="qJ8zN0nMe3HMnmFR6Ydz-40" value="Conocer el nombre&lt;div&gt;Conocer el valor de ataque&lt;/div&gt;" style="rounded=0;whiteSpace=wrap;html=1;" vertex="1" parent="qJ8zN0nMe3HMnmFR6Ydz-39">
          <mxGeometry y="30" width="150.76923076923077" height="70" as="geometry" />
        </mxCell>
        <mxCell id="qJ8zN0nMe3HMnmFR6Ydz-41" value="" style="rounded=0;whiteSpace=wrap;html=1;" vertex="1" parent="qJ8zN0nMe3HMnmFR6Ydz-39">
          <mxGeometry x="150.76923076923077" y="30" width="129.23076923076923" height="70" as="geometry" />
        </mxCell>
        <mxCell id="qJ8zN0nMe3HMnmFR6Ydz-42" value="Spell" style="rounded=0;whiteSpace=wrap;html=1;" vertex="1" parent="qJ8zN0nMe3HMnmFR6Ydz-48">
          <mxGeometry width="280" height="30" as="geometry" />
        </mxCell>
        <mxCell id="qJ8zN0nMe3HMnmFR6Ydz-49" value="" style="group" connectable="0" vertex="1" parent="1">
          <mxGeometry x="440" y="525" width="280" height="100" as="geometry" />
        </mxCell>
        <mxCell id="qJ8zN0nMe3HMnmFR6Ydz-50" value="" style="group" connectable="0" vertex="1" parent="qJ8zN0nMe3HMnmFR6Ydz-49">
          <mxGeometry width="280" height="100" as="geometry" />
        </mxCell>
        <mxCell id="qJ8zN0nMe3HMnmFR6Ydz-51" value="Conocer el nombre&lt;div&gt;Conocer el valor de defensa&lt;/div&gt;" style="rounded=0;whiteSpace=wrap;html=1;" vertex="1" parent="qJ8zN0nMe3HMnmFR6Ydz-50">
          <mxGeometry y="30" width="150.76923076923077" height="70" as="geometry" />
        </mxCell>
        <mxCell id="qJ8zN0nMe3HMnmFR6Ydz-52" value="" style="rounded=0;whiteSpace=wrap;html=1;" vertex="1" parent="qJ8zN0nMe3HMnmFR6Ydz-50">
          <mxGeometry x="150.76923076923077" y="30" width="129.23076923076923" height="70" as="geometry" />
        </mxCell>
        <mxCell id="qJ8zN0nMe3HMnmFR6Ydz-53" value="Armadura" style="rounded=0;whiteSpace=wrap;html=1;" vertex="1" parent="qJ8zN0nMe3HMnmFR6Ydz-49">
          <mxGeometry width="280" height="30" as="geometry" />
        </mxCell>
        <mxCell id="qJ8zN0nMe3HMnmFR6Ydz-55" value="" style="group" connectable="0" vertex="1" parent="1">
          <mxGeometry x="440" y="635" width="280" height="100" as="geometry" />
        </mxCell>
        <mxCell id="qJ8zN0nMe3HMnmFR6Ydz-56" value="" style="group" connectable="0" vertex="1" parent="qJ8zN0nMe3HMnmFR6Ydz-55">
          <mxGeometry width="280" height="100" as="geometry" />
        </mxCell>
        <mxCell id="qJ8zN0nMe3HMnmFR6Ydz-57" value="Conocer el nombre&lt;div&gt;Conocer el valor de defensa&lt;/div&gt;" style="rounded=0;whiteSpace=wrap;html=1;" vertex="1" parent="qJ8zN0nMe3HMnmFR6Ydz-56">
          <mxGeometry y="30" width="150.76923076923077" height="70" as="geometry" />
        </mxCell>
        <mxCell id="qJ8zN0nMe3HMnmFR6Ydz-58" value="" style="rounded=0;whiteSpace=wrap;html=1;" vertex="1" parent="qJ8zN0nMe3HMnmFR6Ydz-56">
          <mxGeometry x="150.76923076923077" y="30" width="129.23076923076923" height="70" as="geometry" />
        </mxCell>
        <mxCell id="qJ8zN0nMe3HMnmFR6Ydz-59" value="Escudo" style="rounded=0;whiteSpace=wrap;html=1;" vertex="1" parent="qJ8zN0nMe3HMnmFR6Ydz-55">
          <mxGeometry width="280" height="30" as="geometry" />
        </mxCell>
        <mxCell id="qJ8zN0nMe3HMnmFR6Ydz-60" value="" style="group" connectable="0" vertex="1" parent="1">
          <mxGeometry x="440" y="745" width="280" height="100" as="geometry" />
        </mxCell>
        <mxCell id="qJ8zN0nMe3HMnmFR6Ydz-61" value="" style="group" connectable="0" vertex="1" parent="qJ8zN0nMe3HMnmFR6Ydz-60">
          <mxGeometry width="280" height="100" as="geometry" />
        </mxCell>
        <mxCell id="qJ8zN0nMe3HMnmFR6Ydz-62" value="Conocer el nombre&lt;div&gt;Conocer el valor de ataque&lt;/div&gt;&lt;div&gt;Conocer el valor de defensa&lt;/div&gt;" style="rounded=0;whiteSpace=wrap;html=1;" vertex="1" parent="qJ8zN0nMe3HMnmFR6Ydz-61">
          <mxGeometry y="30" width="150.76923076923077" height="70" as="geometry" />
        </mxCell>
        <mxCell id="qJ8zN0nMe3HMnmFR6Ydz-63" value="" style="rounded=0;whiteSpace=wrap;html=1;" vertex="1" parent="qJ8zN0nMe3HMnmFR6Ydz-61">
          <mxGeometry x="150.76923076923077" y="30" width="129.23076923076923" height="70" as="geometry" />
        </mxCell>
        <mxCell id="qJ8zN0nMe3HMnmFR6Ydz-64" value="Espada" style="rounded=0;whiteSpace=wrap;html=1;" vertex="1" parent="qJ8zN0nMe3HMnmFR6Ydz-60">
          <mxGeometry width="280" height="30" as="geometry" />
        </mxCell>
        <mxCell id="qJ8zN0nMe3HMnmFR6Ydz-65" value="" style="group" connectable="0" vertex="1" parent="1">
          <mxGeometry x="440" y="855" width="280" height="100" as="geometry" />
        </mxCell>
        <mxCell id="qJ8zN0nMe3HMnmFR6Ydz-66" value="" style="group" connectable="0" vertex="1" parent="qJ8zN0nMe3HMnmFR6Ydz-65">
          <mxGeometry width="280" height="100" as="geometry" />
        </mxCell>
        <mxCell id="qJ8zN0nMe3HMnmFR6Ydz-67" value="Conocer el nombre&lt;div&gt;Conocer el valor de ataque&lt;/div&gt;" style="rounded=0;whiteSpace=wrap;html=1;" vertex="1" parent="qJ8zN0nMe3HMnmFR6Ydz-66">
          <mxGeometry y="30" width="150.76923076923077" height="70" as="geometry" />
        </mxCell>
        <mxCell id="qJ8zN0nMe3HMnmFR6Ydz-68" value="" style="rounded=0;whiteSpace=wrap;html=1;" vertex="1" parent="qJ8zN0nMe3HMnmFR6Ydz-66">
          <mxGeometry x="150.76923076923077" y="30" width="129.23076923076923" height="70" as="geometry" />
        </mxCell>
        <mxCell id="qJ8zN0nMe3HMnmFR6Ydz-69" value="Hacha" style="rounded=0;whiteSpace=wrap;html=1;" vertex="1" parent="qJ8zN0nMe3HMnmFR6Ydz-65">
          <mxGeometry width="280" height="30" as="geometry" />
        </mxCell>
        <mxCell id="qJ8zN0nMe3HMnmFR6Ydz-70" value="Se utiliza la palabra &quot;Item&quot; para referirse de forma general a cualquiera de las armas y objetos de defensa que se pueden crear y asignar a los personajes." style="text;html=1;align=center;verticalAlign=middle;whiteSpace=wrap;rounded=0;" vertex="1" parent="1">
          <mxGeometry x="430" y="1100" width="290" height="30" as="geometry" />
        </mxCell>
      </root>
    </mxGraphModel>
  </diagram>
</mxfile>
